<svg xmlns="http://www.w3.org/2000/svg" xmlns:xlink="http://www.w3.org/1999/xlink" width="304" height="44" viewBox="0 0 304 44">
  <!-- X -->
  <a xlink:href="https://x.com/sumboutlaw">
    <rect x="0" y="0" width="44" height="44" rx="10" fill="#0d1117" stroke="#30363d" stroke-width="1"/>
    <path transform="translate(12, 12)" fill="#e6edf3" d="M18.244 2.25h3.308l-7.227 8.26 8.502 11.24H16.17l-5.214-6.817L4.99 21.75H1.68l7.73-8.835L1.254 2.25H8.08l4.713 6.231zm-1.161 17.52h1.833L7.084 4.126H5.117z" transform-origin="12 12"/>
  </a>

  <!-- Instagram -->
  <a xlink:href="https://instagram.com/lawsonwtf">
    <rect x="65" y="0" width="44" height="44" rx="10" fill="#E1306C"/>
    <rect x="75" y="10" width="24" height="24" rx="5" fill="none" stroke="white" stroke-width="2"/>
    <circle cx="87" cy="22" r="5" fill="none" stroke="white" stroke-width="2"/>
    <circle cx="92.5" cy="16.5" r="1.5" fill="white"/>
  </a>

  <!-- Discord -->
  <a xlink:href="https://discordapp.com/users/527167786200465418">
    <rect x="130" y="0" width="44" height="44" rx="10" fill="#5865F2"/>
    <path transform="translate(140, 10)" fill="white" d="M18.59 5.89a15.86 15.86 0 00-3.91-1.22.06.06 0 00-.06.03c-.17.3-.36.69-.49 1a14.63 14.63 0 00-4.39 0 10.12 10.12 0 00-.5-1 .06.06 0 00-.06-.03 15.81 15.81 0 00-3.91 1.22.05.05 0 00-.02.02C2.83 9.55 2.15 13.1 2.48 16.61a.06.06 0 00.02.05 15.93 15.93 0 004.8 2.42.06.06 0 00.07-.02c.37-.5.7-1.03.98-1.6a.06.06 0 00-.03-.08 10.49 10.49 0 01-1.5-.71.06.06 0 01-.005-.1c.1-.075.2-.15.3-.23a.06.06 0 01.06-.01c3.14 1.44 6.55 1.44 9.65 0a.06.06 0 01.06.01c.1.08.2.16.3.23a.06.06 0 01-.004.1c-.48.28-.98.52-1.5.71a.06.06 0 00-.03.09c.29.56.62 1.1.98 1.59a.06.06 0 00.07.02 15.88 15.88 0 004.8-2.42.06.06 0 00.03-.05c.4-4.13-.67-7.72-2.84-10.9a.05.05 0 00-.02-.02zM8.68 14.56c-.94 0-1.72-.87-1.72-1.94s.76-1.93 1.72-1.93c.97 0 1.74.87 1.73 1.93 0 1.07-.77 1.94-1.73 1.94zm6.38 0c-.95 0-1.73-.87-1.73-1.94s.76-1.93 1.73-1.93c.96 0 1.73.87 1.72 1.93 0 1.07-.76 1.94-1.72 1.94z"/>
  </a>

  <!-- Email -->
  <a xlink:href="mailto:me@lawsonhart.me">
    <rect x="195" y="0" width="44" height="44" rx="10" fill="#EA4335"/>
    <rect x="207" y="14" width="20" height="16" rx="2" fill="none" stroke="white" stroke-width="2"/>
    <path d="M207 14l10 9 10-9" fill="none" stroke="white" stroke-width="2" stroke-linecap="round" stroke-linejoin="round"/>
  </a>

  <!-- Buy Me a Coffee -->
  <a xlink:href="https://buymeacoffee.com/lawsonhart">
    <rect x="260" y="0" width="44" height="44" rx="10" fill="#FFDD00"/>
    <path transform="translate(270, 10)" fill="#0d1117" d="M17 8h2a3 3 0 010 6h-2" stroke="#0d1117" stroke-width="2" stroke-linecap="round"/>
    <rect x="272" y="18" width="15" height="12" rx="2" fill="none" stroke="#0d1117" stroke-width="2"/>
    <line x1="276" y1="11" x2="276" y2="14" stroke="#0d1117" stroke-width="2" stroke-linecap="round"/>
    <line x1="280" y1="11" x2="280" y2="14" stroke="#0d1117" stroke-width="2" stroke-linecap="round"/>
    <line x1="284" y1="11" x2="284" y2="14" stroke="#0d1117" stroke-width="2" stroke-linecap="round"/>
  </a>
</svg>
